/* XPM */
static char * arrow_xpm[] = {
"13 20 104 2",
"  	c #000000",
". 	c #FFFFFF",
"+ 	c #C0C0C0",
"@ 	c #404040",
"# 	c #BFBFBF",
"$ 	c #F0F0F0",
"% 	c #151514",
"& 	c #303030",
"* 	c #808080",
"= 	c #606060",
"- 	c #A0A0A0",
"; 	c #FEFEFE",
"> 	c #505050",
", 	c #EAEAEA",
"' 	c #101010",
") 	c #5F5F5E",
"! 	c #E0E0E0",
"~ 	c #1F1F1E",
"{ 	c #FCFCFC",
"] 	c #707070",
"^ 	c #B0B0B0",
"/ 	c #F1F2F1",
"( 	c #DCDCDC",
"_ 	c #C9C9C9",
": 	c #F2F3F2",
"< 	c #909090",
"[ 	c #949494",
"} 	c #F9F9F9",
"| 	c #D0D0D0",
"1 	c #F8F9F8",
"2 	c #DBDBDB",
"3 	c #202020",
"4 	c #2A2A29",
"5 	c #F1F1F1",
"6 	c #D3D3D3",
"7 	c #C4C4C4",
"8 	c #050505",
"9 	c #D7D7D6",
"0 	c #F2F2F2",
"a 	c #FAFAFA",
"b 	c #FDFDFD",
"c 	c #9F9F9E",
"d 	c #F4F4F4",
"e 	c #F8F8F8",
"f 	c #D5D6D6",
"g 	c #BEBEBE",
"h 	c #E2E2E2",
"i 	c #D4D4D4",
"j 	c #A7A7A8",
"k 	c #EDEDED",
"l 	c #4A4A4A",
"m 	c #C0C1C0",
"n 	c #CCCCCC",
"o 	c #D6D6D6",
"p 	c #E0E1E0",
"q 	c #D0D0CF",
"r 	c #EBEBEB",
"s 	c #767777",
"t 	c #0A0A0A",
"u 	c #8B8B8B",
"v 	c #AFB0B0",
"w 	c #E9EAEA",
"x 	c #C7C7C7",
"y 	c #D8D9D9",
"z 	c #171717",
"A 	c #0F0F0F",
"B 	c #9A9A9A",
"C 	c #F6F6F6",
"D 	c #C7C7C8",
"E 	c #F6F7F6",
"F 	c #D6D7D7",
"G 	c #D2D2D3",
"H 	c #E4E4E4",
"I 	c #CFCFCF",
"J 	c #F5F6F5",
"K 	c #CACACB",
"L 	c #CBCBCB",
"M 	c #EEEEEE",
"N 	c #E0E0E1",
"O 	c #A4A4A5",
"P 	c #ACACAC",
"Q 	c #DDDEDD",
"R 	c #BEBFBF",
"S 	c #E9EAE9",
"T 	c #B4B4B4",
"U 	c #353534",
"V 	c #343433",
"W 	c #474747",
"X 	c #D9DAD9",
"Y 	c #CECECE",
"Z 	c #070707",
"` 	c #C5C5C5",
" .	c #E5E6E5",
"..	c #C1C1C1",
"+.	c #858585",
"@.	c #989898",
"#.	c #727272",
"$.	c #BCBCBC",
"%.	c #656565",
"&.	c #7C7C7C",
"*.	c #E3E3E3",
"=.	c #1F1F1F",
"-.	c #E5E6E6",
";.	c #7D7E7D",
". . . . . . . . . . . . . ",
". 9 ) } . . . . . . . . . ",
". 7 % [ ( . . . . . . . . ",
". #   ~ c ( . . . . . . . ",
". #     ~ [ } . . . . . . ",
". #       % ) . . . . . . ",
". #       8 =.) } . . . . ",
". #         8 % [ ( . . . ",
". #             ~ c ( . . ",
". #               ~ [ } . ",
". #                 % ) . ",
". #     z A Z ~ # # 7 9 . ",
". #   % %.l % % L . . . . ",
". ..t ) T u V   &.$.. . . ",
". _ 4 . . P #.  4 _ N . . ",
". . . . . . _ 4   s m . . ",
". . . . . . ` ;.  U @.. . ",
". . . . . . . n % % +.. . ",
". . . . . . . d ) W B . . ",
". . . . . . . . . . . . . "};
