/* XPM */
static char * hand_xpm[] = {
"18 17 16 1",
" 	c #FFFFFF",
".	c #000000",
"+	c #808080",
"@	c #C0C0C0",
"#	c #E0E0E0",
"$	c #404040",
"%	c #B0B0B0",
"&	c #505050",
"*	c #D0D0D0",
"=	c #F0F0F0",
"-	c #707070",
";	c #303030",
">	c #A0A0A0",
",	c #606060",
"'	c #909090",
")	c #202020",
"                  ",
"        ..        ",
"    .. .  ...     ",
"   .  ..  .  .    ",
"   .  ..  .  . .  ",
"    .  .  .  .. . ",
"    .  .  .  .  . ",
"  .. .       .  . ",
" .  ..          . ",
" .   .         .  ",
"  .            .  ",
"   .           .  ",
"   .          .   ",
"    .         .   ",
"     .       .    ",
"      .      .    ",
"      .      .    "};
