/* XPM */
static const char * rect_lasso_xpm[] = {
"16 15 3 1",
" 	c None",
".	c #000000",
"+	c #FFFFFF",
"                ",
"                ",
"  ..+.+..+.+..  ",
"  .++++++++++.  ",
"  ++++++++++++  ",
"  .++++++++++.  ",
"  .++++++++++.  ",
"  ++++++++++++  ",
"  .++++++++++.  ",
"  .++++++++++.  ",
"  ++++++++++++  ",
"  .++++++++++.  ",
"  ..+.+..+.+..  ",
"                ",
"                "};
