/* XPM */
static char * view_xpm[] = {
"16 15 70 1",
" 	c #FFFFFF",
".	c #BCBCBB",
"+	c #898988",
"@	c #F1F1F1",
"#	c #FDFDFD",
"$	c #A2A2A1",
"%	c #313130",
"&	c #9E9E9E",
"*	c #E7E7E7",
"=	c #FEFEFE",
"-	c #9C9C9C",
";	c #060605",
">	c #3B3B3A",
",	c #A0A09F",
"'	c #F6F6F6",
")	c #000000",
"!	c #959594",
"~	c #2E2E2E",
"{	c #9D9D9C",
"]	c #FCFCFC",
"^	c #050505",
"/	c #30302F",
"(	c #A5A5A5",
"_	c #EBEBEB",
":	c #40403F",
"<	c #A7A7A7",
"[	c #F3F3F3",
"}	c #070707",
"|	c #3B3B3B",
"1	c #080808",
"2	c #0B0B0B",
"3	c #323231",
"4	c #7F7F7F",
"5	c #868686",
"6	c #A8A8A7",
"7	c #060606",
"8	c #383838",
"9	c #474747",
"0	c #171716",
"a	c #DDDDDD",
"b	c #F5F5F5",
"c	c #F8F8F8",
"d	c #A2A2A2",
"e	c #363636",
"f	c #A0A0A0",
"g	c #1E1E1E",
"h	c #939393",
"i	c #E4E4E4",
"j	c #C8C8C8",
"k	c #A5A5A4",
"l	c #D7D7D7",
"m	c #888888",
"n	c #121211",
"o	c #5E5E5E",
"p	c #C7C7C7",
"q	c #F7F7F8",
"r	c #C2C2C2",
"s	c #3D3D3C",
"t	c #272727",
"u	c #8D8D8D",
"v	c #F0F0F0",
"w	c #E8E8E8",
"x	c #858585",
"y	c #161615",
"z	c #646464",
"A	c #EAEAEA",
"B	c #C3C3C3",
"C	c #4A4A49",
"D	c #777776",
"E	c #ECECEC",
"   .+@#         ",
"   $%&*=        ",
"   -;>,'        ",
"   -);%!        ",
"   -));~{]      ",
"   -)))^/(_=    ",
"   -))));:<[    ",
"   -)))))}|-    ",
"   -)12}3456    ",
"   -78909abc    ",
"   def&:ghi=    ",
"   jk lmnopq    ",
"       rstuv    ",
"       wxyzA    ",
"       #BCDE    "};
