/* XPM */
static const char * view_xpm[] = {
"16 15 49 1",
" 	c None",
".	c #BCBCBB",
"+	c #898988",
"@	c #A2A2A1",
"#	c #313130",
"$	c #9E9E9E",
"%	c #9C9C9C",
"&	c #060605",
"*	c #3B3B3A",
"=	c #A0A09F",
"-	c #000000",
";	c #959594",
">	c #2E2E2E",
",	c #9D9D9C",
"'	c #050505",
")	c #30302F",
"!	c #A5A5A5",
"~	c #40403F",
"{	c #A7A7A7",
"]	c #070707",
"^	c #3B3B3B",
"/	c #080808",
"(	c #0B0B0B",
"_	c #323231",
":	c #7F7F7F",
"<	c #868686",
"[	c #A8A8A7",
"}	c #060606",
"|	c #383838",
"1	c #474747",
"2	c #171716",
"3	c #A2A2A2",
"4	c #363636",
"5	c #A0A0A0",
"6	c #1E1E1E",
"7	c #939393",
"8	c #A5A5A4",
"9	c #888888",
"0	c #121211",
"a	c #5E5E5E",
"b	c #3D3D3C",
"c	c #272727",
"d	c #8D8D8D",
"e	c #858585",
"f	c #161615",
"g	c #646464",
"h	c #4A4A49",
"i	c #777776",
"j	c #ECECEC",
"   .+           ",
"   @#$          ",
"   %&*=         ",
"   %-&#;        ",
"   %--&>,       ",
"   %---')!      ",
"   %----&~{     ",
"   %-----]^%    ",
"   %-/(]_:<[    ",
"   %}|121       ",
"   345$~67      ",
"    8  90a      ",
"        bcd     ",
"        efg     ",
"         hij    "};
